<svg width="154" height="65" xmlns="http://www.w3.org/2000/svg" xmlns:xlink="http://www.w3.org/1999/xlink"><title>Group 2</title><defs><path d="M18.465 18.104c.07-6.444 4.99-9.61 9.87-9.572 3.323.026 6.645 1.566 8.402 4.607.948-2.603 2.754-4.07 4.778-4.07 1.839 0 3.431.74 4.561 2.045 1.17-1.59 3.212-2.437 5.299-2.437 2.962 0 6.356 2.382 6.356 6.487 0 1.483.083 4.992.324 6.432.147.876.818 1.732 1.65 1.837.735.093 1.702-.572 1.641-1.747-.362-2.092-.512-4.07-.522-5.333-.01-1.415.1-4.775.565-5.852.257-.598.577-1.063 1.275-1.223.972-.224 3.218-.543 4.153-.308.801.202 1.32.83 1.256 1.864-.294 4.844-.335 8.052.535 10.944.256.852.886 1.637 1.75 1.676.864.04 1.606-.792 1.647-1.683-.358-1.042-.557-2.217-.557-3.525 0-6.54 4.955-9.752 9.872-9.714C86.16 8.57 91 11.82 91 18.246c0 6.463-4.802 9.714-9.719 9.714-3.236 0-6.472-1.392-8.306-4.198l-.345.601c-.969 1.786-2.656 3.663-5.72 3.522-2.267-.104-3.9-1.627-4.822-3.675-1.074 1.795-3.175 4.074-6.125 3.701-2.951-.372-4.575-3.237-4.864-6.385-.198-2.155-.224-3.584-.324-4.758-.077-.887-.475-1.689-1.307-1.794-.826-.104-1.726.527-1.71 1.39.08 2.598.046 6.664.07 8.779.013 1.217-.336 1.724-1.594 2.058-1.073.284-2.247.512-4.003.51-.646 0-1.17-.557-1.17-1.245.005-2.523-.009-8.824-.198-9.71-.185-.87-.68-1.616-1.52-1.616-.419 0-.994.132-1.59.496l-.028.017c.189.798.29 1.662.29 2.593 0 6.463-4.801 9.714-9.718 9.714-3.804 0-7.608-1.923-9.135-5.805C17.685 25.028 14.222 28 9.892 28 3.024 28 0 22.97 0 17.805c0-5.164 4.174-9.233 9.551-9.233 4.366 0 7.006 2.554 7.793 6.246.535 2.514-.832 4.69-2.552 5.123-1.588.4-2.74-.408-3.333-1.416-.591-1.004-.62-2.226-.04-3.16.653-1.049 2.065-2.009 1.06-2.848-.95-.792-3.076.39-3.848 1.337-.638.782-1.447 1.803-1.447 3.951 0 2.967 2.622 5.544 5.657 5.544 2.916 0 5.361-2.188 5.624-5.245zm50.283-14.47a3.627 3.627 0 0 1-3.62 3.632c-2 0-3.621-1.626-3.621-3.633A3.627 3.627 0 0 1 65.127 0c2 0 3.621 1.627 3.621 3.633zM81.281 22.26c1.715-.038 3.278-1.376 3.278-4.015s-1.563-3.978-3.201-4.016c-1.677-.038-3.43 1.3-3.43 4.016 0 2.715 1.676 4.054 3.353 4.015zm-52.984 0c1.715-.038 3.278-1.376 3.278-4.015s-1.563-3.978-3.202-4.016c-1.677-.038-3.43 1.3-3.43 4.016 0 2.715 1.677 4.054 3.354 4.015z" id="a"/></defs><g fill="none" fill-rule="evenodd"><g fill-rule="nonzero"><path d="M9.13 53.835c-.476 0-.942-.225-1.23-.644-1.9-2.773-2.596-6.107-1.96-9.389a1.483 1.483 0 0 1 1.737-1.164 1.468 1.468 0 0 1 1.177 1.717 9.446 9.446 0 0 0 1.502 7.19c.46.67.283 1.582-.395 2.037a1.488 1.488 0 0 1-.831.253M8.237 19.57c-.78 0-1.433-.602-1.48-1.382-.183-3.09.881-6.067 2.996-8.38 2.109-2.307 5.011-3.678 8.172-3.86 1.901-.11 3.815.227 5.533.975a1.46 1.46 0 0 1 .76 1.934 1.49 1.49 0 0 1-1.956.751 9.017 9.017 0 0 0-4.164-.732c-2.379.138-4.561 1.168-6.144 2.9-1.578 1.725-2.371 3.941-2.235 6.24a1.473 1.473 0 0 1-1.482 1.554" fill="#FFF"/><path d="M31.67 55.848c-2.984 3.142-6.43 5.484-10.43 6.025a16.04 16.04 0 0 1-2.15.145 15.83 15.83 0 0 1-9.534-3.179c-6.942-5.213-8.29-14.526-4.283-20.04.714-.984 1.404-2.125 1.896-3.308.258.835.422 1.791.478 2.945A1.476 1.476 0 0 0 9.2 39.83a1.473 1.473 0 0 0 1.411-1.535c-.201-4.163-1.679-6.432-3.245-8.265a1.494 1.494 0 0 0-.103-.109 4.318 4.318 0 0 0-.24-.362C.947 21.374 3.806 12.857 6.769 8.988c1.928-2.518 6.386-5.895 11.678-5.896 4.006 0 8.49 1.936 12.714 7.647 10.327 13.959 13.327 31.616.51 45.11m11.386-22.543c-.453-8.107-3.739-16.51-9.502-24.3-2.236-3.023-4.718-5.307-7.376-6.788C23.725.85 21.124.158 18.447.158c-5.97 0-11.355 3.546-14.044 7.059C2.286 9.98.883 13.69.55 17.397c-.44 4.905.972 9.711 4.08 13.9.738.992.027 3.32-1.767 5.79C.427 40.44-.473 44.956.394 49.478c.891 4.644 3.508 8.798 7.368 11.697a18.721 18.721 0 0 0 11.327 3.776c.85 0 1.709-.058 2.552-.172 4.275-.578 8.376-2.907 12.19-6.923 3.377-3.554 5.87-7.524 7.413-11.801 1.45-4.023 2.06-8.312 1.812-12.75m1.709-9.575a1.48 1.48 0 0 1-1.442-1.128 1.467 1.467 0 0 1 1.1-1.766l3.412-.8c.797-.188 1.596.3 1.786 1.088a1.466 1.466 0 0 1-1.101 1.766l-3.411.801c-.116.027-.23.04-.344.04m2.897 4.756l-.105-.003-2.364-.164a1.473 1.473 0 0 1-1.376-1.565 1.48 1.48 0 0 1 1.583-1.361l2.364.163a1.472 1.472 0 0 1 1.376 1.565 1.477 1.477 0 0 1-1.478 1.365m-4.44-8.84c-.49 0-.968-.239-1.251-.677a1.458 1.458 0 0 1 .451-2.026l1.997-1.262a1.493 1.493 0 0 1 2.048.446c.441.683.24 1.59-.45 2.026l-1.997 1.262a1.489 1.489 0 0 1-.798.231" fill="#14131D"/><path d="M27.761 26.833c-.237 0-.478-.059-.7-.181a1.417 1.417 0 0 1-.557-1.94c.77-1.365 2.122-2.301 3.708-2.567 1.65-.278 3.346.22 4.65 1.365.596.523.65 1.424.122 2.012a1.452 1.452 0 0 1-2.034.12c-.658-.576-1.459-.821-2.255-.687a2.347 2.347 0 0 0-1.674 1.146 1.443 1.443 0 0 1-1.26.732m-2.973 17.163c-1.995 0-3.92-.57-5.623-1.676a11.013 11.013 0 0 1-4.177-5.075 1.519 1.519 0 0 1 .86-1.98 1.547 1.547 0 0 1 2.002.85c1.075 2.66 3.866 5.174 7.677 4.796 4.08-.405 6.825-3.36 6.828-5.867a1.533 1.533 0 0 1 1.541-1.522h.003c.85.001 1.54.684 1.539 1.526-.003 2.252-1.1 4.428-3.087 6.129-1.782 1.524-4.157 2.533-6.517 2.767-.35.035-.699.052-1.046.052m-8.677-14.9c-1.348 0-2.446-1.086-2.446-2.42 0-1.333 1.098-2.419 2.446-2.419 1.35 0 2.447 1.086 2.447 2.42 0 1.333-1.098 2.419-2.447 2.419" fill="#14131D"/></g><g transform="translate(63 15)"><mask id="b" fill="#fff"><use xlink:href="#a"/></mask><path fill="#FFF" mask="url(#b)" d="M0 28h91V0H0z"/></g></g></svg>