<svg xmlns="http://www.w3.org/2000/svg" width="134" height="100" viewBox="0 0 134 100">
	<style>

		#cursor {
			-webkit-animation: blink 1s step-end infinite;
			animation: "blink" 1s step-end infinite;
		}

		@-webkit-keyframes "blink" {
			0% { opacity: 1.0; }
			50% { opacity: 0.0; }
			100% { opacity: 1.0; }
		}

		@keyframes "blink" {
			0% { opacity: 1.0; }
			50% { opacity: 0.0; }
			100% { opacity: 1.0; }
		}
	</style>
  <g fill="none">
    <path fill="#D5D5D5" d="M5.832,12.474 C5.6519991,12.065998 5.49600066,11.6940017 5.364,11.358 C5.23199934,11.0219983 5.10300063,10.6860017 4.977,10.35 C4.85099937,10.0139983 4.72500063,9.66300183 4.599,9.297 C4.47299937,8.93099817 4.32600084,8.51400234 4.158,8.046 C3.98999916,8.51400234 3.84000066,8.93099817 3.708,9.297 C3.57599934,9.66300183 3.44700063,10.0139983 3.321,10.35 C3.19499937,10.6860017 3.06300069,11.0219983 2.925,11.358 C2.78699931,11.6940017 2.6280009,12.065998 2.448,12.474 L1.332,12.474 C0.99599832,10.9979926 0.71700111,9.53700723 0.495,8.091 C0.27299889,6.64499277 0.10800054,5.322006 -2.84217094e-14,4.122 L1.404,4.122 C1.44000018,4.59000234 1.47899979,5.04899775 1.521,5.499 C1.56300021,5.94900225 1.6139997,6.41999754 1.674,6.912 C1.7340003,7.40400246 1.80299961,7.93799712 1.881,8.514 C1.95900039,9.09000288 2.04599952,9.7379964 2.142,10.458 C2.33400096,9.9779976 2.49599934,9.5580018 2.628,9.198 C2.76000066,8.8379982 2.87999946,8.49600162 2.988,8.172 C3.09600054,7.84799838 3.20099949,7.51800168 3.303,7.182 C3.40500051,6.84599832 3.5159994,6.4680021 3.636,6.048 L4.752,6.048 L5.076,7.182 C5.17200048,7.51800168 5.27399946,7.84799838 5.382,8.172 L5.724,9.198 C5.8440006,9.5580018 5.9939991,9.97199766 6.174,10.44 C6.28200054,9.7799967 6.37799958,9.16800282 6.462,8.604 C6.54600042,8.03999718 6.6179997,7.50900249 6.678,7.011 C6.7380003,6.51299751 6.79199976,6.03000234 6.84,5.562 C6.88800024,5.09399766 6.92999982,4.61400246 6.966,4.122 L8.316,4.122 C8.2559997,4.722003 8.18400042,5.36399658 8.1,6.048 C8.01599958,6.73200342 7.9140006,7.4339964 7.794,8.154 C7.6739994,8.8740036 7.54200072,9.60299631 7.398,10.341 C7.25399928,11.0790037 7.10400078,11.7899966 6.948,12.474 L5.832,12.474 Z M16.938,8.298 C16.938,8.9580033 16.8450009,9.55499733 16.659,10.089 C16.4729991,10.6230027 16.2120017,11.0819981 15.876,11.466 C15.5399983,11.8500019 15.1380023,12.146999 14.67,12.357 C14.2019977,12.5670011 13.6920028,12.672 13.14,12.672 C12.5999973,12.672 12.0990023,12.5670011 11.637,12.357 C11.1749977,12.146999 10.7760017,11.8500019 10.44,11.466 C10.1039983,11.0819981 9.84300093,10.6230027 9.657,10.089 C9.47099907,9.55499733 9.378,8.9580033 9.378,8.298 C9.378,7.6379967 9.47099907,7.0380027 9.657,6.498 C9.84300093,5.9579973 10.1039983,5.49900189 10.44,5.121 C10.7760017,4.74299811 11.1749977,4.44900105 11.637,4.239 C12.0990023,4.02899895 12.5999973,3.924 13.14,3.924 C13.6920028,3.924 14.2019977,4.02899895 14.67,4.239 C15.1380023,4.44900105 15.5399983,4.74299811 15.876,5.121 C16.2120017,5.49900189 16.4729991,5.9579973 16.659,6.498 C16.8450009,7.0380027 16.938,7.6379967 16.938,8.298 Z M15.408,8.298 C15.408,7.34999526 15.204002,6.60300273 14.796,6.057 C14.387998,5.51099727 13.8360035,5.238 13.14,5.238 C12.4559966,5.238 11.913002,5.51099727 11.511,6.057 C11.108998,6.60300273 10.908,7.34999526 10.908,8.298 C10.908,9.23400468 11.108998,9.97499727 11.511,10.521 C11.913002,11.0670027 12.4559966,11.34 13.14,11.34 C13.8360035,11.34 14.387998,11.0670027 14.796,10.521 C15.204002,9.97499727 15.408,9.23400468 15.408,8.298 Z M19.584,12.474 L19.584,4.572 C20.8080061,4.1519979 22.0439938,3.942 23.292,3.942 C23.6760019,3.942 24.0419983,3.95699985 24.39,3.987 C24.7380017,4.01700015 25.1219979,4.07999952 25.542,4.176 L25.272,5.49 C24.8879981,5.38199946 24.5490015,5.31300015 24.255,5.283 C23.9609985,5.25299985 23.6400017,5.238 23.292,5.238 C22.5599963,5.238 21.8160038,5.33999898 21.06,5.544 L21.06,12.474 L19.584,12.474 Z M30.942,7.884 C31.2660016,8.1240012 31.631998,8.42699817 32.04,8.793 C32.448002,9.15900183 32.852998,9.5519979 33.255,9.972 C33.657002,10.3920021 34.0379982,10.8209978 34.398,11.259 C34.7580018,11.6970022 35.0459989,12.1019981 35.262,12.474 L33.498,12.474 C33.2699989,12.1019981 32.9880017,11.721002 32.652,11.331 C32.3159983,10.9409981 31.9590019,10.5660018 31.581,10.206 C31.2029981,9.8459982 30.8250019,9.5160015 30.447,9.216 C30.0689981,8.9159985 29.7300015,8.66400102 29.43,8.46 L29.43,12.474 L27.936,12.474 L27.936,0.252 L29.43,1.0658141e-14 L29.43,7.614 C30.0900033,7.03799712 30.7499967,6.46500285 31.41,5.895 C32.0700033,5.32499715 32.6639974,4.73400306 33.192,4.122 L34.938,4.122 C34.4219974,4.73400306 33.8010036,5.36399676 33.075,6.012 C32.3489964,6.66000324 31.6380035,7.283997 30.942,7.884 Z M39.42,2.826 C39.1079984,2.826 38.8380011,2.71800108 38.61,2.502 C38.3819989,2.28599892 38.268,1.99200186 38.268,1.62 C38.268,1.24799814 38.3819989,0.95400108 38.61,0.738 C38.8380011,0.52199892 39.1079984,0.414 39.42,0.414 C39.7440016,0.414 40.0169989,0.52199892 40.239,0.738 C40.4610011,0.95400108 40.572,1.24799814 40.572,1.62 C40.572,1.99200186 40.4610011,2.28599892 40.239,2.502 C40.0169989,2.71800108 39.7440016,2.826 39.42,2.826 Z M39.042,5.364 L36.63,5.364 L36.63,4.122 L40.518,4.122 L40.518,9.252 C40.518,10.0800041 40.6319989,10.6349986 40.86,10.917 C41.0880011,11.1990014 41.4299977,11.34 41.886,11.34 C42.2340017,11.34 42.5549985,11.2980004 42.849,11.214 C43.1430015,11.1299996 43.3739992,11.0400005 43.542,10.944 L43.758,12.204 C43.6859996,12.2400002 43.5840007,12.2849997 43.452,12.339 C43.3199993,12.3930003 43.1670009,12.4439998 42.993,12.492 C42.8189991,12.5400002 42.627001,12.5819998 42.417,12.618 C42.2069989,12.6540002 41.9880011,12.672 41.76,12.672 C41.2319974,12.672 40.7940017,12.6000007 40.446,12.456 C40.0979983,12.3119993 39.819001,12.0960014 39.609,11.808 C39.3989989,11.5199986 39.2520004,11.1630021 39.168,10.737 C39.0839996,10.3109979 39.042,9.81600282 39.042,9.252 L39.042,5.364 Z M45.936,4.356 C46.4760027,4.22399934 47.0129973,4.12200036 47.547,4.05 C48.0810027,3.97799964 48.5819977,3.942 49.05,3.942 C50.1660056,3.942 51.0089971,4.22999712 51.579,4.806 C52.1490028,5.38200288 52.434,6.30599364 52.434,7.578 L52.434,12.474 L50.958,12.474 L50.958,7.848 C50.958,7.3079973 50.9100005,6.87000168 50.814,6.534 C50.7179995,6.19799832 50.5830009,5.93700093 50.409,5.751 C50.2349991,5.56499907 50.0250012,5.43600036 49.779,5.364 C49.5329988,5.29199964 49.2660014,5.256 48.978,5.256 C48.7379988,5.256 48.4830013,5.27099985 48.213,5.301 C47.9429986,5.33100015 47.6820013,5.36999976 47.43,5.418 L47.43,12.474 L45.936,12.474 L45.936,4.356 Z M59.886,11.7 C59.7179992,11.7960005 59.4600017,11.8979995 59.112,12.006 C58.7639983,12.1140005 58.3620023,12.168 57.906,12.168 C57.4139975,12.168 56.9550021,12.0870008 56.529,11.925 C56.1029979,11.7629992 55.7310016,11.5170017 55.413,11.187 C55.0949984,10.8569984 54.8430009,10.4370026 54.657,9.927 C54.4709991,9.41699745 54.378,8.81400348 54.378,8.118 C54.378,7.50599694 54.4649991,6.94500255 54.639,6.435 C54.8130009,5.92499745 55.0649983,5.48400186 55.395,5.112 C55.7250016,4.73999814 56.1299976,4.44900105 56.61,4.239 C57.0900024,4.02899895 57.6359969,3.924 58.248,3.924 C58.9680036,3.924 59.5829974,3.97499949 60.093,4.077 C60.6030025,4.17900051 61.0319983,4.27799952 61.38,4.374 L61.38,11.826 C61.38,13.1220065 61.0530033,14.0579971 60.399,14.634 C59.7449967,15.2100029 58.7580066,15.498 57.438,15.498 C56.8979973,15.498 56.4090022,15.4560004 55.971,15.372 C55.5329978,15.2879996 55.1460017,15.1860006 54.81,15.066 L55.08,13.752 C55.3920016,13.8840007 55.748998,13.9919996 56.151,14.076 C56.553002,14.1600004 56.9939976,14.202 57.474,14.202 C58.3380043,14.202 58.9559981,14.0280017 59.328,13.68 C59.7000019,13.3319983 59.886,12.7680039 59.886,11.988 L59.886,11.7 Z M59.886,5.436 C59.7419993,5.38799976 59.5440013,5.34300021 59.292,5.301 C59.0399987,5.25899979 58.6980022,5.238 58.266,5.238 C57.4979962,5.238 56.913002,5.50199736 56.511,6.03 C56.108998,6.55800264 55.908,7.25999562 55.908,8.136 C55.908,8.6160024 55.9649994,9.02699829 56.079,9.369 C56.1930006,9.71100171 56.348999,9.99299889 56.547,10.215 C56.745001,10.4370011 56.9699987,10.5989995 57.222,10.701 C57.4740013,10.8030005 57.7439986,10.854 58.032,10.854 C58.4040019,10.854 58.7549983,10.8000005 59.085,10.692 C59.4150016,10.5839995 59.681999,10.4580007 59.886,10.314 L59.886,5.436 Z M68.976,10.386 C68.976,10.0859985 68.8530012,9.84000096 68.607,9.648 C68.3609988,9.45599904 68.0550018,9.28800072 67.689,9.144 C67.3229982,8.99999928 66.9240022,8.85900069 66.492,8.721 C66.0599978,8.58299931 65.6610018,8.41200102 65.295,8.208 C64.9289982,8.00399898 64.6230012,7.7520015 64.377,7.452 C64.1309988,7.1519985 64.008,6.7620024 64.008,6.282 C64.008,5.60999664 64.2809973,5.04900225 64.827,4.599 C65.3730027,4.14899775 66.2279942,3.924 67.392,3.924 C67.8480023,3.924 68.3189976,3.95699967 68.805,4.023 C69.2910024,4.08900033 69.7079983,4.17599946 70.056,4.284 L69.786,5.616 C69.6899995,5.56799976 69.5580008,5.51700027 69.39,5.463 C69.2219992,5.40899973 69.0300011,5.36100021 68.814,5.319 C68.5979989,5.27699979 68.3670012,5.24400012 68.121,5.22 C67.8749988,5.19599988 67.6380011,5.184 67.41,5.184 C66.1139935,5.184 65.466,5.53799646 65.466,6.246 C65.466,6.49800126 65.5889988,6.71099913 65.835,6.885 C66.0810012,7.05900087 66.3899981,7.21799928 66.762,7.362 C67.1340019,7.50600072 67.5359978,7.65299925 67.968,7.803 C68.4000022,7.95300075 68.8019981,8.13599892 69.174,8.352 C69.5460019,8.56800108 69.8549988,8.82899847 70.101,9.135 C70.3470012,9.44100153 70.47,9.82799766 70.47,10.296 C70.47,11.0520038 70.1760029,11.6369979 69.588,12.051 C68.9999971,12.4650021 68.0700064,12.672 66.798,12.672 C66.2219971,12.672 65.6940024,12.6240005 65.214,12.528 C64.7339976,12.4319995 64.2780022,12.288001 63.846,12.096 L64.134,10.746 C64.5540021,10.938001 64.9949977,11.0969994 65.457,11.223 C65.9190023,11.3490006 66.4139974,11.412 66.942,11.412 C68.2980068,11.412 68.976,11.0700034 68.976,10.386 Z M79.938,8.298 C79.938,8.9580033 79.8450009,9.55499733 79.659,10.089 C79.4729991,10.6230027 79.2120017,11.0819981 78.876,11.466 C78.5399983,11.8500019 78.1380023,12.146999 77.67,12.357 C77.2019977,12.5670011 76.6920028,12.672 76.14,12.672 C75.5999973,12.672 75.0990023,12.5670011 74.637,12.357 C74.1749977,12.146999 73.7760017,11.8500019 73.44,11.466 C73.1039983,11.0819981 72.8430009,10.6230027 72.657,10.089 C72.4709991,9.55499733 72.378,8.9580033 72.378,8.298 C72.378,7.6379967 72.4709991,7.0380027 72.657,6.498 C72.8430009,5.9579973 73.1039983,5.49900189 73.44,5.121 C73.7760017,4.74299811 74.1749977,4.44900105 74.637,4.239 C75.0990023,4.02899895 75.5999973,3.924 76.14,3.924 C76.6920028,3.924 77.2019977,4.02899895 77.67,4.239 C78.1380023,4.44900105 78.5399983,4.74299811 78.876,5.121 C79.2120017,5.49900189 79.4729991,5.9579973 79.659,6.498 C79.8450009,7.0380027 79.938,7.6379967 79.938,8.298 Z M78.408,8.298 C78.408,7.34999526 78.204002,6.60300273 77.796,6.057 C77.387998,5.51099727 76.8360035,5.238 76.14,5.238 C75.4559966,5.238 74.913002,5.51099727 74.511,6.057 C74.108998,6.60300273 73.908,7.34999526 73.908,8.298 C73.908,9.23400468 74.108998,9.97499727 74.511,10.521 C74.913002,11.0670027 75.4559966,11.34 76.14,11.34 C76.8360035,11.34 77.387998,11.0670027 77.796,10.521 C78.204002,9.97499727 78.408,9.23400468 78.408,8.298 Z M83.556,12.474 L83.556,5.364 L81.792,5.364 L81.792,4.122 L83.556,4.122 L83.556,3.366 C83.556,2.71799676 83.6459991,2.18100213 83.826,1.755 C84.0060009,1.32899787 84.2429985,0.98400132 84.537,0.72 C84.8310015,0.45599868 85.172998,0.27000054 85.563,0.162 C85.9530019,0.05399946 86.3639978,1.0658141e-14 86.796,1.0658141e-14 C87.2280022,1.0658141e-14 87.6629978,0.04799952 88.101,0.144 C88.5390022,0.24000048 88.9499981,0.35399934 89.334,0.486 L89.064,1.764 C88.7999987,1.63199934 88.470002,1.51800048 88.074,1.422 C87.677998,1.32599952 87.276002,1.278 86.868,1.278 C86.6159987,1.278 86.3790011,1.31099967 86.157,1.377 C85.9349989,1.44300033 85.7400008,1.55699919 85.572,1.719 C85.4039992,1.88100081 85.2720005,2.09699865 85.176,2.367 C85.0799995,2.63700135 85.032,2.97599796 85.032,3.384 L85.032,4.122 L88.398,4.122 L88.398,5.364 L85.032,5.364 L85.032,12.474 L83.556,12.474 Z M94.032,4.122 L97.56,4.122 L97.56,5.364 L94.032,5.364 L94.032,9.252 C94.032,9.6720021 94.0619997,10.0139987 94.122,10.278 C94.1820003,10.5420013 94.2809993,10.7549992 94.419,10.917 C94.5570007,11.0790008 94.7339989,11.1899997 94.95,11.25 C95.1660011,11.3100003 95.4299984,11.34 95.742,11.34 C96.1740022,11.34 96.5219987,11.3040004 96.786,11.232 C97.0500013,11.1599996 97.3019988,11.0640006 97.542,10.944 L97.758,12.204 C97.5899992,12.2760004 97.3230018,12.3719994 96.957,12.492 C96.5909982,12.6120006 96.1380027,12.672 95.598,12.672 C94.9739969,12.672 94.464002,12.6000007 94.068,12.456 C93.671998,12.3119993 93.3630011,12.0960014 93.141,11.808 C92.9189989,11.5199986 92.7660004,11.1630021 92.682,10.737 C92.5979996,10.3109979 92.556,9.81600282 92.556,9.252 L92.556,5.364 L90.792,5.364 L90.792,4.122 L92.556,4.122 L92.556,1.782 L94.032,1.53 L94.032,4.122 Z M104.832,12.474 C104.651999,12.065998 104.496001,11.6940017 104.364,11.358 C104.231999,11.0219983 104.103001,10.6860017 103.977,10.35 C103.850999,10.0139983 103.725001,9.66300183 103.599,9.297 C103.472999,8.93099817 103.326001,8.51400234 103.158,8.046 C102.989999,8.51400234 102.840001,8.93099817 102.708,9.297 C102.575999,9.66300183 102.447001,10.0139983 102.321,10.35 C102.194999,10.6860017 102.063001,11.0219983 101.925,11.358 C101.786999,11.6940017 101.628001,12.065998 101.448,12.474 L100.332,12.474 C99.9959983,10.9979926 99.7170011,9.53700723 99.495,8.091 C99.2729989,6.64499277 99.1080005,5.322006 99,4.122 L100.404,4.122 C100.44,4.59000234 100.479,5.04899775 100.521,5.499 C100.563,5.94900225 100.614,6.41999754 100.674,6.912 C100.734,7.40400246 100.803,7.93799712 100.881,8.514 C100.959,9.09000288 101.046,9.7379964 101.142,10.458 C101.334001,9.9779976 101.495999,9.5580018 101.628,9.198 C101.760001,8.8379982 101.879999,8.49600162 101.988,8.172 C102.096001,7.84799838 102.200999,7.51800168 102.303,7.182 C102.405001,6.84599832 102.515999,6.4680021 102.636,6.048 L103.752,6.048 L104.076,7.182 C104.172,7.51800168 104.273999,7.84799838 104.382,8.172 L104.724,9.198 C104.844001,9.5580018 104.993999,9.97199766 105.174,10.44 C105.282001,9.7799967 105.378,9.16800282 105.462,8.604 C105.546,8.03999718 105.618,7.50900249 105.678,7.011 C105.738,6.51299751 105.792,6.03000234 105.84,5.562 C105.888,5.09399766 105.93,4.61400246 105.966,4.122 L107.316,4.122 C107.256,4.722003 107.184,5.36399658 107.1,6.048 C107.016,6.73200342 106.914001,7.4339964 106.794,8.154 C106.673999,8.8740036 106.542001,9.60299631 106.398,10.341 C106.253999,11.0790037 106.104001,11.7899966 105.948,12.474 L104.832,12.474 Z M112.248,11.412 C112.620002,11.412 112.952999,11.4000001 113.247,11.376 C113.541001,11.3519999 113.783999,11.3220002 113.976,11.286 L113.976,8.802 C113.783999,8.7419997 113.553001,8.69400018 113.283,8.658 C113.012999,8.62199982 112.728001,8.604 112.428,8.604 C112.151999,8.604 111.882001,8.62499979 111.618,8.667 C111.353999,8.70900021 111.120001,8.78399946 110.916,8.892 C110.711999,9.00000054 110.544001,9.14099913 110.412,9.315 C110.279999,9.48900087 110.214,9.70799868 110.214,9.972 C110.214,10.5120027 110.396998,10.886999 110.763,11.097 C111.129002,11.3070011 111.623997,11.412 112.248,11.412 Z M112.104,3.924 C112.728003,3.924 113.252998,4.00199922 113.679,4.158 C114.105002,4.31400078 114.449999,4.52999862 114.714,4.806 C114.978001,5.08200138 115.163999,5.41799802 115.272,5.814 C115.380001,6.21000198 115.434,6.64199766 115.434,7.11 L115.434,12.33 C115.085998,12.3900003 114.627003,12.4619996 114.057,12.546 C113.486997,12.6300004 112.902003,12.672 112.302,12.672 C111.845998,12.672 111.402002,12.6330004 110.97,12.555 C110.537998,12.4769996 110.154002,12.339001 109.818,12.141 C109.481998,11.942999 109.212001,11.6700017 109.008,11.322 C108.803999,10.9739983 108.702,10.5300027 108.702,9.99 C108.702,9.5099976 108.806999,9.10500165 109.017,8.775 C109.227001,8.44499835 109.496998,8.17800102 109.827,7.974 C110.157002,7.76999898 110.534998,7.62300045 110.961,7.533 C111.387002,7.44299955 111.815998,7.398 112.248,7.398 C112.836003,7.398 113.411997,7.46399934 113.976,7.596 L113.976,7.182 C113.976,6.92999874 113.949,6.68700117 113.895,6.453 C113.841,6.21899883 113.739001,6.00600096 113.589,5.814 C113.438999,5.62199904 113.235001,5.46900057 112.977,5.355 C112.718999,5.24099943 112.386002,5.184 111.978,5.184 C111.461997,5.184 111.012002,5.21999964 110.628,5.292 C110.243998,5.36400036 109.950001,5.43599964 109.746,5.508 L109.566,4.284 C109.770001,4.18799952 110.108998,4.10400036 110.583,4.032 C111.057002,3.95999964 111.563997,3.924 112.104,3.924 Z M118.584,12.474 L118.584,4.572 C119.808006,4.1519979 121.043994,3.942 122.292,3.942 C122.676002,3.942 123.041998,3.95699985 123.39,3.987 C123.738002,4.01700015 124.121998,4.07999952 124.542,4.176 L124.272,5.49 C123.887998,5.38199946 123.549001,5.31300015 123.255,5.283 C122.960999,5.25299985 122.640002,5.238 122.292,5.238 C121.559996,5.238 120.816004,5.33999898 120.06,5.544 L120.06,12.474 L118.584,12.474 Z M130.32,3.924 C131.448006,3.924 132.317997,4.27499649 132.93,4.977 C133.542003,5.67900351 133.848,6.74399286 133.848,8.172 L133.848,8.694 L127.872,8.694 C127.932,9.55800432 128.216997,10.2149978 128.727,10.665 C129.237003,11.1150023 129.953995,11.34 130.878,11.34 C131.406003,11.34 131.855998,11.2980004 132.228,11.214 C132.600002,11.1299996 132.881999,11.0400005 133.074,10.944 L133.272,12.204 C133.091999,12.3000005 132.768002,12.4019995 132.3,12.51 C131.831998,12.6180005 131.304003,12.672 130.716,12.672 C129.995996,12.672 129.363003,12.5610011 128.817,12.339 C128.270997,12.1169989 127.818002,11.8140019 127.458,11.43 C127.097998,11.0459981 126.828001,10.5870027 126.648,10.053 C126.467999,9.51899733 126.378,8.94000312 126.378,8.316 C126.378,7.57199628 126.491999,6.92400276 126.72,6.372 C126.948001,5.81999724 127.247998,5.3640018 127.62,5.004 C127.992002,4.6439982 128.411998,4.3740009 128.88,4.194 C129.348002,4.0139991 129.827998,3.924 130.32,3.924 Z M132.336,7.488 C132.336,6.77999646 132.150002,6.21900207 131.778,5.805 C131.405998,5.39099793 130.914003,5.184 130.302,5.184 C129.953998,5.184 129.639001,5.24999934 129.357,5.382 C129.074999,5.51400066 128.832001,5.68799892 128.628,5.904 C128.423999,6.12000108 128.262001,6.36599862 128.142,6.642 C128.021999,6.91800138 127.944,7.19999856 127.908,7.488 L132.336,7.488 Z M0.54,26.316 C0.54,25.5599962 0.6599988,24.9060028 0.9,24.354 C1.1400012,23.8019972 1.4699979,23.3460018 1.89,22.986 C2.3100021,22.6259982 2.79899721,22.3590009 3.357,22.185 C3.91500279,22.0109991 4.51199682,21.924 5.148,21.924 C5.55600204,21.924 5.96099799,21.9509997 6.363,22.005 C6.76500201,22.0590003 7.19399772,22.1579993 7.65,22.302 L7.308,23.58 C6.91199802,23.4359993 6.54900165,23.3430002 6.219,23.301 C5.88899835,23.2589998 5.55600168,23.238 5.22,23.238 C4.78799784,23.238 4.38000192,23.2949994 3.996,23.409 C3.61199808,23.5230006 3.27900141,23.7029988 2.997,23.949 C2.71499859,24.1950012 2.49000084,24.5129981 2.322,24.903 C2.15399916,25.293002 2.07,25.7639972 2.07,26.316 C2.07,26.8440026 2.14799922,27.2969981 2.304,27.675 C2.46000078,28.0530019 2.67899859,28.3649988 2.961,28.611 C3.24300141,28.8570012 3.58199802,29.0399994 3.978,29.16 C4.37400198,29.2800006 4.8119976,29.34 5.292,29.34 C5.67600192,29.34 6.04499823,29.3190002 6.399,29.277 C6.75300177,29.2349998 7.1399979,29.1420007 7.56,28.998 L7.776,30.24 C7.3559979,30.3960008 6.93000216,30.5069997 6.498,30.573 C6.06599784,30.6390003 5.59800252,30.672 5.094,30.672 C4.42199664,30.672 3.80700279,30.5790009 3.249,30.393 C2.69099721,30.2069991 2.21100201,29.9340018 1.809,29.574 C1.40699799,29.2139982 1.09500111,28.7610027 0.873,28.215 C0.65099889,27.6689973 0.54,27.0360036 0.54,26.316 Z M16.938,26.298 C16.938,26.9580033 16.8450009,27.5549973 16.659,28.089 C16.4729991,28.6230027 16.2120017,29.0819981 15.876,29.466 C15.5399983,29.8500019 15.1380023,30.146999 14.67,30.357 C14.2019977,30.5670011 13.6920028,30.672 13.14,30.672 C12.5999973,30.672 12.0990023,30.5670011 11.637,30.357 C11.1749977,30.146999 10.7760017,29.8500019 10.44,29.466 C10.1039983,29.0819981 9.84300093,28.6230027 9.657,28.089 C9.47099907,27.5549973 9.378,26.9580033 9.378,26.298 C9.378,25.6379967 9.47099907,25.0380027 9.657,24.498 C9.84300093,23.9579973 10.1039983,23.4990019 10.44,23.121 C10.7760017,22.7429981 11.1749977,22.4490011 11.637,22.239 C12.0990023,22.028999 12.5999973,21.924 13.14,21.924 C13.6920028,21.924 14.2019977,22.028999 14.67,22.239 C15.1380023,22.4490011 15.5399983,22.7429981 15.876,23.121 C16.2120017,23.4990019 16.4729991,23.9579973 16.659,24.498 C16.8450009,25.0380027 16.938,25.6379967 16.938,26.298 Z M15.408,26.298 C15.408,25.3499953 15.204002,24.6030027 14.796,24.057 C14.387998,23.5109973 13.8360035,23.238 13.14,23.238 C12.4559966,23.238 11.913002,23.5109973 11.511,24.057 C11.108998,24.6030027 10.908,25.3499953 10.908,26.298 C10.908,27.2340047 11.108998,27.9749973 11.511,28.521 C11.913002,29.0670027 12.4559966,29.34 13.14,29.34 C13.8360035,29.34 14.387998,29.0670027 14.796,28.521 C15.204002,27.9749973 15.408,27.2340047 15.408,26.298 Z M18.936,22.356 C19.4760027,22.2239993 20.0129973,22.1220004 20.547,22.05 C21.0810027,21.9779996 21.5819977,21.942 22.05,21.942 C23.1660056,21.942 24.0089971,22.2299971 24.579,22.806 C25.1490028,23.3820029 25.434,24.3059936 25.434,25.578 L25.434,30.474 L23.958,30.474 L23.958,25.848 C23.958,25.3079973 23.9100005,24.8700017 23.814,24.534 C23.7179995,24.1979983 23.5830009,23.9370009 23.409,23.751 C23.2349991,23.5649991 23.0250012,23.4360004 22.779,23.364 C22.5329988,23.2919996 22.2660014,23.256 21.978,23.256 C21.7379988,23.256 21.4830013,23.2709999 21.213,23.301 C20.9429986,23.3310002 20.6820013,23.3699998 20.43,23.418 L20.43,30.474 L18.936,30.474 L18.936,22.356 Z M29.556,30.474 L29.556,23.364 L27.792,23.364 L27.792,22.122 L29.556,22.122 L29.556,21.366 C29.556,20.7179968 29.6459991,20.1810021 29.826,19.755 C30.0060009,19.3289979 30.2429985,18.9840013 30.537,18.72 C30.8310015,18.4559987 31.172998,18.2700005 31.563,18.162 C31.9530019,18.0539995 32.3639978,18 32.796,18 C33.2280022,18 33.6629978,18.0479995 34.101,18.144 C34.5390022,18.2400005 34.9499981,18.3539993 35.334,18.486 L35.064,19.764 C34.7999987,19.6319993 34.470002,19.5180005 34.074,19.422 C33.677998,19.3259995 33.276002,19.278 32.868,19.278 C32.6159987,19.278 32.3790011,19.3109997 32.157,19.377 C31.9349989,19.4430003 31.7400008,19.5569992 31.572,19.719 C31.4039992,19.8810008 31.2720005,20.0969987 31.176,20.367 C31.0799995,20.6370014 31.032,20.975998 31.032,21.384 L31.032,22.122 L34.398,22.122 L34.398,23.364 L31.032,23.364 L31.032,30.474 L29.556,30.474 Z M40.32,21.924 C41.4480056,21.924 42.3179969,22.2749965 42.93,22.977 C43.5420031,23.6790035 43.848,24.7439929 43.848,26.172 L43.848,26.694 L37.872,26.694 C37.9320003,27.5580043 38.2169975,28.2149978 38.727,28.665 C39.2370025,29.1150023 39.9539954,29.34 40.878,29.34 C41.4060026,29.34 41.8559981,29.2980004 42.228,29.214 C42.6000019,29.1299996 42.881999,29.0400005 43.074,28.944 L43.272,30.204 C43.0919991,30.3000005 42.7680023,30.4019995 42.3,30.51 C41.8319977,30.6180005 41.3040029,30.672 40.716,30.672 C39.9959964,30.672 39.3630027,30.5610011 38.817,30.339 C38.2709973,30.1169989 37.8180018,29.8140019 37.458,29.43 C37.0979982,29.0459981 36.8280009,28.5870027 36.648,28.053 C36.4679991,27.5189973 36.378,26.9400031 36.378,26.316 C36.378,25.5719963 36.4919989,24.9240028 36.72,24.372 C36.9480011,23.8199972 37.2479981,23.3640018 37.62,23.004 C37.9920019,22.6439982 38.4119977,22.3740009 38.88,22.194 C39.3480023,22.0139991 39.8279975,21.924 40.32,21.924 Z M42.336,25.488 C42.336,24.7799965 42.1500019,24.2190021 41.778,23.805 C41.4059981,23.3909979 40.9140031,23.184 40.302,23.184 C39.9539983,23.184 39.6390014,23.2499993 39.357,23.382 C39.0749986,23.5140007 38.832001,23.6879989 38.628,23.904 C38.423999,24.1200011 38.2620006,24.3659986 38.142,24.642 C38.0219994,24.9180014 37.9440002,25.1999986 37.908,25.488 L42.336,25.488 Z M46.584,30.474 L46.584,22.572 C47.8080061,22.1519979 49.0439938,21.942 50.292,21.942 C50.6760019,21.942 51.0419983,21.9569999 51.39,21.987 C51.7380017,22.0170002 52.1219979,22.0799995 52.542,22.176 L52.272,23.49 C51.8879981,23.3819995 51.5490015,23.3130002 51.255,23.283 C50.9609985,23.2529999 50.6400017,23.238 50.292,23.238 C49.5599963,23.238 48.8160038,23.339999 48.06,23.544 L48.06,30.474 L46.584,30.474 Z M58.32,21.924 C59.4480056,21.924 60.3179969,22.2749965 60.93,22.977 C61.5420031,23.6790035 61.848,24.7439929 61.848,26.172 L61.848,26.694 L55.872,26.694 C55.9320003,27.5580043 56.2169975,28.2149978 56.727,28.665 C57.2370025,29.1150023 57.9539954,29.34 58.878,29.34 C59.4060026,29.34 59.8559981,29.2980004 60.228,29.214 C60.6000019,29.1299996 60.881999,29.0400005 61.074,28.944 L61.272,30.204 C61.0919991,30.3000005 60.7680023,30.4019995 60.3,30.51 C59.8319977,30.6180005 59.3040029,30.672 58.716,30.672 C57.9959964,30.672 57.3630027,30.5610011 56.817,30.339 C56.2709973,30.1169989 55.8180018,29.8140019 55.458,29.43 C55.0979982,29.0459981 54.8280009,28.5870027 54.648,28.053 C54.4679991,27.5189973 54.378,26.9400031 54.378,26.316 C54.378,25.5719963 54.4919989,24.9240028 54.72,24.372 C54.9480011,23.8199972 55.2479981,23.3640018 55.62,23.004 C55.9920019,22.6439982 56.4119977,22.3740009 56.88,22.194 C57.3480023,22.0139991 57.8279975,21.924 58.32,21.924 Z M60.336,25.488 C60.336,24.7799965 60.1500019,24.2190021 59.778,23.805 C59.4059981,23.3909979 58.9140031,23.184 58.302,23.184 C57.9539983,23.184 57.6390014,23.2499993 57.357,23.382 C57.0749986,23.5140007 56.832001,23.6879989 56.628,23.904 C56.423999,24.1200011 56.2620006,24.3659986 56.142,24.642 C56.0219994,24.9180014 55.9440002,25.1999986 55.908,25.488 L60.336,25.488 Z M63.936,22.356 C64.4760027,22.2239993 65.0129973,22.1220004 65.547,22.05 C66.0810027,21.9779996 66.5819977,21.942 67.05,21.942 C68.1660056,21.942 69.0089971,22.2299971 69.579,22.806 C70.1490028,23.3820029 70.434,24.3059936 70.434,25.578 L70.434,30.474 L68.958,30.474 L68.958,25.848 C68.958,25.3079973 68.9100005,24.8700017 68.814,24.534 C68.7179995,24.1979983 68.5830009,23.9370009 68.409,23.751 C68.2349991,23.5649991 68.0250012,23.4360004 67.779,23.364 C67.5329988,23.2919996 67.2660014,23.256 66.978,23.256 C66.7379988,23.256 66.4830013,23.2709999 66.213,23.301 C65.9429986,23.3310002 65.6820013,23.3699998 65.43,23.418 L65.43,30.474 L63.936,30.474 L63.936,22.356 Z M72.54,26.316 C72.54,25.5599962 72.6599988,24.9060028 72.9,24.354 C73.1400012,23.8019972 73.4699979,23.3460018 73.89,22.986 C74.3100021,22.6259982 74.7989972,22.3590009 75.357,22.185 C75.9150028,22.0109991 76.5119968,21.924 77.148,21.924 C77.556002,21.924 77.960998,21.9509997 78.363,22.005 C78.765002,22.0590003 79.1939977,22.1579993 79.65,22.302 L79.308,23.58 C78.911998,23.4359993 78.5490016,23.3430002 78.219,23.301 C77.8889984,23.2589998 77.5560017,23.238 77.22,23.238 C76.7879978,23.238 76.3800019,23.2949994 75.996,23.409 C75.6119981,23.5230006 75.2790014,23.7029988 74.997,23.949 C74.7149986,24.1950012 74.4900008,24.5129981 74.322,24.903 C74.1539992,25.293002 74.07,25.7639972 74.07,26.316 C74.07,26.8440026 74.1479992,27.2969981 74.304,27.675 C74.4600008,28.0530019 74.6789986,28.3649988 74.961,28.611 C75.2430014,28.8570012 75.581998,29.0399994 75.978,29.16 C76.374002,29.2800006 76.8119976,29.34 77.292,29.34 C77.6760019,29.34 78.0449982,29.3190002 78.399,29.277 C78.7530018,29.2349998 79.1399979,29.1420007 79.56,28.998 L79.776,30.24 C79.3559979,30.3960008 78.9300022,30.5069997 78.498,30.573 C78.0659978,30.6390003 77.5980025,30.672 77.094,30.672 C76.4219966,30.672 75.8070028,30.5790009 75.249,30.393 C74.6909972,30.2069991 74.211002,29.9340018 73.809,29.574 C73.406998,29.2139982 73.0950011,28.7610027 72.873,28.215 C72.6509989,27.6689973 72.54,27.0360036 72.54,26.316 Z M85.32,21.924 C86.4480056,21.924 87.3179969,22.2749965 87.93,22.977 C88.5420031,23.6790035 88.848,24.7439929 88.848,26.172 L88.848,26.694 L82.872,26.694 C82.9320003,27.5580043 83.2169974,28.2149978 83.727,28.665 C84.2370025,29.1150023 84.9539954,29.34 85.878,29.34 C86.4060026,29.34 86.8559981,29.2980004 87.228,29.214 C87.6000019,29.1299996 87.881999,29.0400005 88.074,28.944 L88.272,30.204 C88.0919991,30.3000005 87.7680023,30.4019995 87.3,30.51 C86.8319977,30.6180005 86.3040029,30.672 85.716,30.672 C84.9959964,30.672 84.3630027,30.5610011 83.817,30.339 C83.2709973,30.1169989 82.8180018,29.8140019 82.458,29.43 C82.0979982,29.0459981 81.8280009,28.5870027 81.648,28.053 C81.4679991,27.5189973 81.378,26.9400031 81.378,26.316 C81.378,25.5719963 81.4919989,24.9240028 81.72,24.372 C81.9480011,23.8199972 82.2479981,23.3640018 82.62,23.004 C82.9920019,22.6439982 83.4119977,22.3740009 83.88,22.194 C84.3480023,22.0139991 84.8279975,21.924 85.32,21.924 Z M87.336,25.488 C87.336,24.7799965 87.1500019,24.2190021 86.778,23.805 C86.4059981,23.3909979 85.9140031,23.184 85.302,23.184 C84.9539983,23.184 84.6390014,23.2499993 84.357,23.382 C84.0749986,23.5140007 83.832001,23.6879989 83.628,23.904 C83.423999,24.1200011 83.2620006,24.3659986 83.142,24.642 C83.0219994,24.9180014 82.9440002,25.1999986 82.908,25.488 L87.336,25.488 Z M7.218,40.176 C7.218,40.5600019 7.14300075,40.9319982 6.993,41.292 C6.84299925,41.6520018 6.64500123,42.0059983 6.399,42.354 C6.15299877,42.7020017 5.87400156,43.0439983 5.562,43.38 C5.24999844,43.7160017 4.93200162,44.0459984 4.608,44.37 C4.4279991,44.5500009 4.2180012,44.7659987 3.978,45.018 C3.7379988,45.2700013 3.51000108,45.5279987 3.294,45.792 C3.07799892,46.0560013 2.89800072,46.3139987 2.754,46.566 C2.60999928,46.8180013 2.538,47.0339991 2.538,47.214 L7.668,47.214 L7.668,48.474 L0.918,48.474 C0.90599994,48.4139997 0.9,48.3510003 0.9,48.285 L0.9,48.096 C0.9,47.5919975 0.98399916,47.1240022 1.152,46.692 C1.32000084,46.2599978 1.53599868,45.8520019 1.8,45.468 C2.06400132,45.0839981 2.36099835,44.7210017 2.691,44.379 C3.02100165,44.0369983 3.34799838,43.7040016 3.672,43.38 C3.93600132,43.1159987 4.19099877,42.8580013 4.437,42.606 C4.68300123,42.3539987 4.89899907,42.1020013 5.085,41.85 C5.27100093,41.5979987 5.42099943,41.3370014 5.535,41.067 C5.64900057,40.7969987 5.706,40.5180014 5.706,40.23 C5.706,39.9059984 5.65500051,39.6300011 5.553,39.402 C5.45099949,39.1739989 5.31300087,38.9850008 5.139,38.835 C4.96499913,38.6849993 4.76400114,38.5740004 4.536,38.502 C4.30799886,38.4299996 4.06200132,38.394 3.798,38.394 C3.48599844,38.394 3.20100129,38.4359996 2.943,38.52 C2.68499871,38.6040004 2.45700099,38.7059994 2.259,38.826 C2.06099901,38.9460006 1.89000072,39.0629994 1.746,39.177 C1.60199928,39.2910006 1.49400036,39.3839996 1.422,39.456 L0.684,38.412 C0.78000048,38.3039995 0.92399904,38.1720008 1.116,38.016 C1.30800096,37.8599992 1.53899865,37.7130007 1.809,37.575 C2.07900135,37.4369993 2.38199832,37.3200005 2.718,37.224 C3.05400168,37.1279995 3.41399808,37.08 3.798,37.08 C4.96200582,37.08 5.82299721,37.3469973 6.381,37.881 C6.93900279,38.4150027 7.218,39.179995 7.218,40.176 Z M14.202,42.696 C14.202,43.0080016 14.1090009,43.2779989 13.923,43.506 C13.7369991,43.7340011 13.4940015,43.848 13.194,43.848 C12.8819984,43.848 12.630001,43.7340011 12.438,43.506 C12.245999,43.2779989 12.15,43.0080016 12.15,42.696 C12.15,42.3839984 12.245999,42.1080012 12.438,41.868 C12.630001,41.6279988 12.8819984,41.508 13.194,41.508 C13.4940015,41.508 13.7369991,41.6279988 13.923,41.868 C14.1090009,42.1080012 14.202,42.3839984 14.202,42.696 Z M9.486,42.894 C9.486,41.0219906 9.80699679,39.585005 10.449,38.583 C11.0910032,37.580995 11.9939942,37.08 13.158,37.08 C14.3340059,37.08 15.2399968,37.580995 15.876,38.583 C16.5120032,39.585005 16.83,41.0219906 16.83,42.894 C16.83,44.7660094 16.5120032,46.202995 15.876,47.205 C15.2399968,48.207005 14.3340059,48.708 13.158,48.708 C11.9939942,48.708 11.0910032,48.207005 10.449,47.205 C9.80699679,46.202995 9.486,44.7660094 9.486,42.894 Z M15.318,42.894 C15.318,42.2819969 15.2820004,41.7030027 15.21,41.157 C15.1379996,40.6109973 15.0180008,40.134002 14.85,39.726 C14.6819992,39.317998 14.4600014,38.9940012 14.184,38.754 C13.9079986,38.5139988 13.566002,38.394 13.158,38.394 C12.749998,38.394 12.4080014,38.5139988 12.132,38.754 C11.8559986,38.9940012 11.6340008,39.317998 11.466,39.726 C11.2979992,40.134002 11.1780004,40.6109973 11.106,41.157 C11.0339996,41.7030027 10.998,42.2819969 10.998,42.894 C10.998,43.5060031 11.0339996,44.0849973 11.106,44.631 C11.1780004,45.1770027 11.2979992,45.653998 11.466,46.062 C11.6340008,46.470002 11.8559986,46.7939988 12.132,47.034 C12.4080014,47.2740012 12.749998,47.394 13.158,47.394 C13.566002,47.394 13.9079986,47.2740012 14.184,47.034 C14.4600014,46.7939988 14.6819992,46.470002 14.85,46.062 C15.0180008,45.653998 15.1379996,45.1770027 15.21,44.631 C15.2820004,44.0849973 15.318,43.5060031 15.318,42.894 Z M19.008,39.636 C19.6200031,39.3959988 20.2139971,39.0930018 20.79,38.727 C21.3660029,38.3609982 21.8999975,37.8960028 22.392,37.332 L23.436,37.332 L23.436,47.214 L25.542,47.214 L25.542,48.474 L19.548,48.474 L19.548,47.214 L21.96,47.214 L21.96,39.402 C21.8279993,39.5220006 21.6690009,39.6449994 21.483,39.771 C21.2969991,39.8970006 21.0930011,40.0199994 20.871,40.14 C20.6489989,40.2600006 20.4180012,40.3739995 20.178,40.482 C19.9379988,40.5900005 19.7040011,40.6799996 19.476,40.752 L19.008,39.636 Z M34.704,41.796 C34.704,44.0160111 34.1640054,45.6869944 33.084,46.809 C32.0039946,47.9310056 30.3780109,48.4979999 28.206,48.51 L28.152,47.25 C29.4960067,47.25 30.5789959,46.9830027 31.401,46.449 C32.2230041,45.9149973 32.7659987,44.9940065 33.03,43.686 C32.7419986,43.8180007 32.4240017,43.9229996 32.076,44.001 C31.7279983,44.0790004 31.3620019,44.118 30.978,44.118 C30.3419968,44.118 29.8080022,44.0250009 29.376,43.839 C28.9439978,43.6529991 28.5960013,43.4010016 28.332,43.083 C28.0679987,42.7649984 27.8760006,42.402002 27.756,41.994 C27.6359994,41.585998 27.576,41.1540023 27.576,40.698 C27.576,40.289998 27.6419993,39.8730021 27.774,39.447 C27.9060007,39.0209979 28.1099986,38.6340017 28.386,38.286 C28.6620014,37.9379983 29.0159978,37.6500011 29.448,37.422 C29.8800022,37.1939989 30.395997,37.08 30.996,37.08 C32.2200061,37.08 33.1439969,37.4999958 33.768,38.34 C34.3920031,39.1800042 34.704,40.3319927 34.704,41.796 Z M31.14,42.894 C31.5240019,42.894 31.8809983,42.8580004 32.211,42.786 C32.5410016,42.7139996 32.8619984,42.6120007 33.174,42.48 C33.1860001,42.3599994 33.192,42.2460005 33.192,42.138 C33.192,42.0299995 33.192,41.9160006 33.192,41.796 C33.192,41.3279977 33.1590003,40.8840021 33.093,40.464 C33.0269997,40.0439979 32.9130008,39.6780016 32.751,39.366 C32.5889992,39.0539984 32.3670014,38.8050009 32.085,38.619 C31.8029986,38.4329991 31.4460022,38.34 31.014,38.34 C30.6539982,38.34 30.3540012,38.4149993 30.114,38.565 C29.8739988,38.7150008 29.6760008,38.9009989 29.52,39.123 C29.3639992,39.3450011 29.2530003,39.5939986 29.187,39.87 C29.1209997,40.1460014 29.088,40.4099987 29.088,40.662 C29.088,41.3940037 29.2529983,41.9489981 29.583,42.327 C29.9130016,42.7050019 30.4319965,42.894 31.14,42.894 Z" transform="translate(0 51)"/>
    <path fill="#4DF75B" d="M0.70901267,38.0105679 C0.924905866,37.7401511 1.39716515,37.2128464 2.12580468,36.4286379 C2.85444422,35.6444294 3.73149717,34.7250264 4.75698985,33.6704012 C5.78248253,32.6157759 6.91590481,31.4935634 8.15729069,30.3037298 C9.39867657,29.1138962 10.6940163,27.9511218 12.0433488,26.8153715 C13.878441,25.2469545 15.4706294,23.8543293 16.8199619,22.637454 C18.1692943,21.4205788 19.3836753,20.3524488 20.4631413,19.4330319 C20.5710879,19.3248652 20.4766361,19.0814938 20.1797829,18.7029104 C19.8829298,18.324327 19.5186155,17.8916667 19.0868291,17.4049166 C18.6550427,16.9181665 18.1692903,16.4179031 17.6295573,15.9041113 C17.0898243,15.3903196 16.6310581,14.9441387 16.2532451,14.5655552 C15.0118592,13.3216383 13.7300126,12.0642194 12.4076667,10.7932608 C11.0853209,9.52230223 9.85744677,8.35952776 8.72400749,7.30490255 C7.59056822,6.25027733 6.60557028,5.33087426 5.76898415,4.54666577 C4.93239802,3.76245727 4.37918,3.23515257 4.1093135,2.96473585 C3.62355381,2.47798575 3.63704694,1.99124295 4.14979328,1.50449285 C4.66253962,1.01774275 5.36418198,0.639165016 6.25474141,0.368748293 C7.14530085,0.0983315709 8.07632629,-0.023354129 9.04784567,0.00368754327 C10.0193651,0.0307292155 10.7749799,0.314662515 11.3147129,0.85549596 C11.692526,1.23407937 12.3401959,1.84250787 13.2577419,2.68079971 C14.175288,3.51909155 15.1467928,4.42497398 16.1722855,5.39847418 C17.1977782,6.37197438 18.1827761,7.29137745 19.1273089,8.15671096 C20.0718416,9.02204447 20.7869771,9.69807614 21.2727368,10.1848262 C22.1363095,11.0501598 23.2697318,12.1047692 24.6730376,13.3486861 C26.0763434,14.592603 27.3446969,15.8770632 28.4781362,17.2021051 C29.6115754,18.527147 30.3806834,19.8251278 30.7854831,21.0960864 C31.1902829,22.367045 30.8259686,23.4892576 29.6925293,24.4627578 C28.8289565,25.1658413 27.8439586,26.0311618 26.737506,27.0587454 C25.6310533,28.0863289 24.376193,29.3031859 22.9728872,30.7093529 C22.4871275,31.1420196 21.879937,31.7369275 21.1512974,32.4940943 C20.4226579,33.2512611 19.6805362,34.0219372 18.92491,34.8061457 C18.1692838,35.5903542 17.4271621,36.3475097 16.6985225,37.0776348 L15.0388519,38.7406894 C13.6895194,40.4713564 12.0028791,41.6070896 9.97888042,42.147923 C7.95488171,42.6887565 6.10632395,42.8239628 4.43315168,42.5535461 C2.75997941,42.2831294 1.49162591,41.7287834 0.628053127,40.8904916 C-0.235519657,40.0521997 -0.208533412,39.0922347 0.70901267,38.0105679 Z"/>
    <path id="cursor" fill="#4DF75B" d="M57.0764788,5.67872278 C55.2413866,5.9491395 52.9205696,6.1925109 50.1139581,6.40884428 C47.3073465,6.62517766 44.2309146,6.81446652 40.8845701,6.97671656 C37.5382255,7.13896659 34.057,7.27417292 30.4407889,7.38233961 C26.8245779,7.4905063 23.3433523,7.55810947 19.9970078,7.58515114 C16.6506633,7.61219281 13.533752,7.59867218 10.6461805,7.54458884 C7.75860902,7.49050549 5.39731261,7.38234042 3.56222044,7.22009039 C2.15891467,7.22009039 1.18740986,6.84151266 0.647676868,6.08434584 C0.107943878,5.32717901 -0.0944529575,4.50242038 0.04048029,3.6100452 C0.175413537,2.71767001 0.64767282,1.89291138 1.4572723,1.13574456 C2.26687179,0.378577733 3.37330782,0 4.77661359,0 C6.88157226,0.162250034 9.35081364,0.283935733 12.1844118,0.36506075 C15.01801,0.446185767 18.0134832,0.513788933 21.1709212,0.567872278 C24.3283592,0.621955622 27.5667085,0.662517522 30.8860664,0.689559195 C34.2054243,0.716600867 37.4302806,0.716600867 40.5607319,0.689559195 C43.6911832,0.662517522 46.646177,0.621955622 49.4258019,0.567872278 C52.2054268,0.513788933 54.647682,0.432665134 56.7526406,0.324498445 C57.7781333,0.2704151 58.5877207,0.486745233 59.1814269,0.973495334 C59.7751332,1.46024543 60.1124613,2.02811203 60.1934212,2.67711217 C60.2743812,3.3261123 60.0719844,3.94806143 59.5862247,4.54297822 C59.100465,5.13789501 58.2638914,5.51647275 57.0764788,5.67872278 Z" transform="translate(28 35)">
  	</path>
  </g>
</svg>
